HIERARCHY
ROOT Hips
{
 OFFSET 0.000000 0.000000 0.000000
 CHANNELS 6 Xposition Yposition Zposition Yrotation Xrotation Zrotation
 JOINT Chest
 {
  OFFSET 0.000000 9.585900 0.002600
  CHANNELS 3 Yrotation Xrotation Zrotation
  JOINT Chest2
  {
   OFFSET 0.000000 9.601200 -0.005300
   CHANNELS 3 Yrotation Xrotation Zrotation
   JOINT Chest3
   {
    OFFSET 0.000000 9.561800 0.000000
    CHANNELS 3 Yrotation Xrotation Zrotation
    JOINT Chest4
    {
     OFFSET 0.000000 9.552100 0.000000
     CHANNELS 3 Yrotation Xrotation Zrotation
     JOINT Neck
     {
      OFFSET 0.000000 14.453000 0.000000
      CHANNELS 3 Yrotation Xrotation Zrotation
      JOINT Head
      {
       OFFSET 0.000000 8.936500 -0.011300
       CHANNELS 3 Yrotation Xrotation Zrotation
       End Site
       {
        OFFSET 0.000000 17.073600 -0.006000
       }
      }
     }
     JOINT RightCollar
     {
      OFFSET -2.921100 9.558500 0.000000
      CHANNELS 3 Yrotation Xrotation Zrotation
      JOINT RightShoulder
      {
       OFFSET -13.519700 0.000000 0.000000
       CHANNELS 3 Yrotation Xrotation Zrotation
       JOINT RightElbow
       {
        OFFSET 0.000000 -29.696600 0.000000
        CHANNELS 3 Yrotation Xrotation Zrotation
        JOINT RightWrist
        {
         OFFSET 0.000000 -24.004700 0.000000
         CHANNELS 3 Yrotation Xrotation Zrotation
         End Site
         {
          OFFSET 0.000000 -17.728500 0.000000
         }
        }
       }
      }
     }
     JOINT LeftCollar
     {
      OFFSET 2.921100 9.558500 0.000000
      CHANNELS 3 Yrotation Xrotation Zrotation
      JOINT LeftShoulder
      {
       OFFSET 13.519700 0.000000 0.000000
       CHANNELS 3 Yrotation Xrotation Zrotation
       JOINT LeftElbow
       {
        OFFSET 0.000000 -29.696600 0.000000
        CHANNELS 3 Yrotation Xrotation Zrotation
        JOINT LeftWrist
        {
         OFFSET 0.000000 -24.004700 0.000000
         CHANNELS 3 Yrotation Xrotation Zrotation
         End Site
         {
          OFFSET 0.000000 -17.728500 0.000000
         }
        }
       }
      }
     }
    }
   }
  }
 }
 JOINT RightHip
 {
  OFFSET -7.771700 -0.012900 -0.001300
  CHANNELS 3 Yrotation Xrotation Zrotation
  JOINT RightKnee
  {
   OFFSET 0.000000 -40.869800 0.001200
   CHANNELS 3 Yrotation Xrotation Zrotation
   JOINT RightAnkle
   {
    OFFSET 0.000000 -39.717900 0.002100
    CHANNELS 3 Yrotation Xrotation Zrotation
    JOINT RightToe
    {
     OFFSET 0.000000 -4.965400 11.033500
     CHANNELS 3 Yrotation Xrotation Zrotation
     End Site
     {
      OFFSET 0.000000 -1.423100 5.872300
     }
    }
   }
  }
 }
 JOINT LeftHip
 {
  OFFSET 7.771700 -0.012900 -0.001300
  CHANNELS 3 Yrotation Xrotation Zrotation
  JOINT LeftKnee
  {
   OFFSET 0.000000 -40.869800 0.001200
   CHANNELS 3 Yrotation Xrotation Zrotation
   JOINT LeftAnkle
   {
    OFFSET 0.000000 -39.717900 0.002100
    CHANNELS 3 Yrotation Xrotation Zrotation
    JOINT LeftToe
    {
     OFFSET 0.000000 -4.965400 11.033500
     CHANNELS 3 Yrotation Xrotation Zrotation
     End Site
     {
      OFFSET 0.000000 -1.423100 5.872300
     }
    }
   }
  }
 }
}
MOTION
Frames: 16
Frame Time: 0.008333
0.000000 85.388000 0.000000 0.000000 -5.767877 0.000000 0.000000 11.653817 0.000000 0.000000 -5.885947 0.000000 0.000000 -0.000000 0.000000 0.000000 -0.000000 0.000000 0.000000 12.528835 0.000000 0.000000 0.711642 0.000000 0.000000 -0.000000 0.000000 0.000000 0.000000 -90.000000 0.000000 -2.309062 0.000000 0.000000 2.309062 0.000000 0.000000 -0.000000 0.000000 0.000000 -0.000000 90.000000 0.000000 -2.309062 0.000000 0.000000 2.309062 0.000000 0.000000 8.520406 0.000000 0.000000 1.905762 0.000000 -0.000000 -4.658285 0.000000 0.000000 -0.000000 0.000000 0.000000 8.520406 0.000000 0.000000 1.905762 0.000000 -0.000000 -4.658285 0.000000 0.000000 -0.000000 0.000000
-48.697349 62.004235 13.882862 176.948887 -51.565924 -0.126466 4.380699 27.583413 0.235578 0.701104 4.784199 -0.013792 1.119603 7.569262 0.020776 3.364534 22.148543 0.443596 0.136625 16.477860 2.616770 -0.772103 -5.254616 4.922621 7.113891 6.567138 5.285099 7.785780 -20.743435 -15.242166 -137.155761 -50.500931 166.336593 20.264434 -2.307749 -25.477931 -8.782023 1.322194 0.464635 -17.025034 -19.624921 19.381220 155.742599 -59.638038 -174.220412 2.351677 -13.298028 27.405986 3.770663 -15.191796 -7.022858 4.444970 61.999681 -0.101211 0.914017 -9.382615 10.848849 0.034319 -0.171157 0.010166 -0.164095 -5.914611 6.503332 130.316540 83.462631 139.205277 -5.887349 -12.340991 -11.092496 0.237145 -25.368116 0.025008
-48.701667 62.003413 13.880890 176.943128 -51.562749 -0.095174 4.367481 27.582407 0.198872 0.697508 4.782611 -0.019622 1.112915 7.558555 0.008243 3.377059 22.153902 0.454641 0.114974 16.447598 2.657264 -0.802832 -5.288866 5.023623 7.118974 6.556730 5.281847 7.730257 -20.591278 -15.292358 -137.090331 -50.555076 166.313012 20.251200 -2.295505 -25.448434 -8.755917 1.317062 0.457031 -16.939425 -19.495409 19.400225 155.834551 -59.688073 -174.322807 2.345037 -13.219937 27.304761 3.780943 -15.197894 -7.052514 4.448283 62.012046 -0.101993 0.914313 -9.387951 10.852435 0.034290 -0.168730 0.011083 -0.168093 -5.916381 6.467562 130.290755 83.458642 139.180996 -5.912341 -12.340252 -11.106422 0.245025 -25.375202 0.041795
-48.694883 62.000939 13.880596 176.955880 -51.548202 -0.143642 4.375820 27.566471 0.235168 0.696614 4.780793 -0.022499 1.112042 7.557124 0.008682 3.373239 22.152057 0.449677 0.077432 16.401332 2.727049 -0.807560 -5.307054 5.084687 7.122393 6.535026 5.264917 7.663260 -20.438589 -15.319336 -137.032311 -50.608932 166.293942 20.243784 -2.283107 -25.413580 -8.720929 1.292677 0.432441 -16.864319 -19.345477 19.429206 155.903169 -59.739945 -174.409097 2.339817 -13.146522 27.205231 3.762767 -15.215177 -7.003656 4.429036 62.009525 -0.122478 0.915503 -9.374437 10.851570 0.035251 -0.176932 0.010847 -0.191719 -5.927274 6.495577 130.328378 83.452469 139.221267 -5.878515 -12.353637 -11.099731 0.236738 -25.365993 0.013743
-48.693459 61.999763 13.878894 176.956599 -51.545033 -0.148052 4.369169 27.564436 0.222608 0.703817 4.779009 -0.011861 1.100719 7.553923 -0.009581 3.379760 22.149895 0.450911 0.070311 16.379554 2.775776 -0.832947 -5.348687 5.177475 7.099836 6.494057 5.241021 7.614886 -20.270201 -15.322374 -136.990774 -50.663904 166.285384 20.241899 -2.265982 -25.376245 -8.703409 1.292689 0.436564 -16.761300 -19.223741 19.439025 155.957594 -59.794804 -174.488233 2.335276 -13.083269 27.111608 3.762395 -15.222131 -6.995244 4.415281 62.016822 -0.138987 0.920500 -9.367169 10.857909 0.034706 -0.181225 0.008352 -0.200256 -5.927656 6.491725 130.338731 83.449004 139.232952 -5.866771 -12.358617 -11.105920 0.234917 -25.364945 0.009372
-48.693046 61.998560 13.877237 176.953540 -51.543100 -0.140884 4.366931 27.563121 0.214524 0.698687 4.778994 -0.019384 1.106399 7.553268 -0.003786 3.366574 22.148479 0.431233 0.084575 16.374707 2.801073 -0.872768 -5.410342 5.297975 7.106524 6.482625 5.248854 7.552982 -20.140014 -15.349297 -136.958701 -50.724119 166.282418 20.243383 -2.244992 -25.335506 -8.684095 1.290341 0.442725 -16.651520 -19.100424 19.443285 156.006410 -59.848219 -174.567259 2.331889 -13.027426 27.024286 3.766330 -15.226012 -6.993635 4.405164 62.023787 -0.155825 0.919124 -9.369363 10.863295 0.035044 -0.176884 0.009452 -0.210301 -5.925528 6.475514 130.306462 83.443879 139.199420 -5.853807 -12.360742 -11.114830 0.230337 -25.364112 0.005402
-48.691075 61.996890 13.876240 176.954540 -51.538831 -0.143821 4.365102 27.562905 0.207463 0.698460 4.779165 -0.021023 1.105951 7.553341 -0.006317 3.350862 22.154471 0.406002 0.096457 16.342686 2.862387 -0.894238 -5.454939 5.388256 7.121659 6.457292 5.267301 7.487541 -20.015479 -15.367745 -136.932710 -50.789340 166.281732 20.247020 -2.225303 -25.290214 -8.656285 1.271421 0.452574 -16.540395 -18.964021 19.449917 156.059114 -59.897473 -174.651556 2.328222 -12.976936 26.943400 3.766663 -15.233297 -6.985559 4.398064 62.029976 -0.167199 0.919317 -9.367679 10.868118 0.035560 -0.175892 0.009142 -0.212861 -5.929209 6.474794 130.324543 83.444313 139.224247 -5.857345 -12.363479 -11.113810 0.243159 -25.364883 -0.002782
-48.689414 61.995429 13.875346 176.951449 -51.537000 -0.139656 4.357508 27.567722 0.189059 0.703311 4.775168 -0.016622 1.104932 7.554025 -0.008989 3.350813 22.155047 0.404559 0.076941 16.304345 2.930957 -0.898640 -5.483536 5.446238 7.112426 6.430265 5.261517 7.422313 -19.883375 -15.372669 -136.917008 -50.856398 166.286957 20.254456 -2.206993 -25.248596 -8.645894 1.260371 0.447394 -16.424150 -18.828266 19.449400 156.119350 -59.945217 -174.746587 2.321738 -12.936765 26.874379 3.771570 -15.238625 -6.982009 4.386402 62.037743 -0.180358 0.918556 -9.366373 10.869424 0.039637 -0.169055 0.012648 -0.217741 -5.928276 6.469624 130.315393 83.443809 139.215320 -5.854282 -12.368250 -11.119425 0.236632 -25.361986 -0.001163
-48.687607 61.995182 13.873769 176.938173 -51.545331 -0.127083 4.358536 27.579019 0.177573 0.704262 4.777241 -0.016512 1.095159 7.560178 -0.021523 3.369982 22.144465 0.418348 0.063443 16.285884 2.968715 -0.915181 -5.527857 5.532604 7.097389 6.406031 5.251647 7.351246 -19.754330 -15.372671 -136.911743 -50.924226 166.299005 20.264991 -2.192443 -25.213277 -8.643609 1.253761 0.427841 -16.309493 -18.687859 19.455725 156.186360 -59.992359 -174.852450 2.312330 -12.907367 26.818541 3.782506 -15.233988 -6.979992 4.378605 62.045456 -0.190008 0.926151 -9.363691 10.873003 0.035491 -0.172577 0.011330 -0.220216 -5.910738 6.465267 130.271105 83.444614 139.163755 -5.848138 -12.384423 -11.116094 0.234300 -25.347861 -0.009427
-48.685828 61.994231 13.873032 176.932793 -51.548731 -0.120920 4.357482 27.583367 0.170656 0.700556 4.781100 -0.022548 1.098822 7.557712 -0.017739 3.359302 22.151861 0.405047 0.061196 16.254896 3.024870 -0.926602 -5.566868 5.606698 7.100992 6.374720 5.252873 7.270222 -19.631896 -15.370072 -136.917091 -50.991453 166.315565 20.274095 -2.185685 -25.179048 -8.626993 1.245380 0.437809 -16.195113 -18.553865 19.442234 156.258377 -60.040651 -174.959728 2.303536 -12.880510 26.768640 3.787172 -15.233227 -6.978174 4.380967 62.051009 -0.189984 0.926251 -9.364916 10.873362 0.032244 -0.173431 0.011394 -0.218386 -5.905055 6.463573 130.268041 83.445185 139.160265 -5.842617 -12.389221 -11.113423 0.232459 -25.343545 -0.015238
-48.684284 61.993224 13.872599 176.926607 -51.551801 -0.114175 4.356693 27.586514 0.164276 0.696625 4.782214 -0.026887 1.102536 7.557864 -0.015671 3.349421 22.155719 0.393713 0.061464 16.232505 3.070317 -0.944087 -5.609440 5.687324 7.099009 6.346036 5.257587 7.187076 -19.510087 -15.366014 -136.934989 -51.058840 166.338979 20.279355 -2.184226 -25.146851 -8.614574 1.240561 0.443730 -16.088763 -18.416692 19.429341 156.333947 -60.095092 -175.060602 2.297356 -12.851427 26.718286 3.791617 -15.232500 -6.975592 4.376312 62.055646 -0.197735 0.927746 -9.366789 10.875011 0.033388 -0.169826 0.012108 -0.214648 -5.900583 6.461590 130.269475 83.445963 139.162508 -5.834823 -12.391969 -11.113503 0.229954 -25.340755 -0.019233
-48.681855 61.991884 13.872749 176.922318 -51.552058 -0.116730 4.356302 27.587800 0.164729 0.686717 4.787818 -0.033667 1.100158 7.560224 -0.019408 3.357952 22.152576 0.391828 0.058420 16.208285 3.113368 -0.961216 -5.651773 5.763656 7.095945 6.319547 5.263600 7.093056 -19.397773 -15.355760 -136.961444 -51.130890 166.370754 20.283621 -2.185358 -25.116810 -8.595567 1.237036 0.442328 -16.005483 -18.279130 19.423439 156.408936 -60.156757 -175.151434 2.292801 -12.820284 26.669907 3.792785 -15.234339 -6.966208 4.371181 62.057152 -0.203338 0.931270 -9.366548 10.874963 0.032952 -0.163385 0.012988 -0.208626 -5.900575 6.471922 130.298593 83.445946 139.193731 -5.830643 -12.398143 -11.110507 0.227699 -25.336606 -0.022555
-48.679826 61.990460 13.873229 176.920357 -51.551074 -0.121840 4.342759 27.592995 0.155882 0.694074 4.783599 -0.029993 1.101126 7.560654 -0.020377 3.331882 22.159011 0.376571 0.074869 16.180138 3.155612 -0.978459 -5.690337 5.836042 7.110373 6.294475 5.267452 6.989023 -19.298509 -15.333767 -136.987237 -51.209845 166.405116 20.289952 -2.186592 -25.094488 -8.561941 1.234671 0.446501 -15.922929 -18.145734 19.411733 156.475908 -60.223270 -175.231770 2.295466 -12.787599 26.623962 3.793682 -15.237284 -6.955753 4.361250 62.058560 -0.212172 0.929930 -9.364266 10.874918 0.032988 -0.160695 0.013409 -0.207662 -5.902122 6.479258 130.317534 83.445635 139.217346 -5.829731 -12.400305 -11.115994 0.225419 -25.336325 -0.019905
-48.678766 61.989468 13.873608 176.915947 -51.552676 -0.122522 4.341150 27.594935 0.156426 0.690982 4.782610 -0.029955 1.107107 7.561716 -0.021233 3.326508 22.158351 0.374473 0.064664 16.160559 3.194530 -0.995297 -5.722477 5.905373 7.062400 6.271743 5.275930 6.911737 -19.195118 -15.311221 -137.009860 -51.295242 166.441598 20.297236 -2.184029 -25.085784 -8.553907 1.238314 0.445462 -15.838000 -18.010451 19.396368 156.518184 -60.294336 -175.297635 2.310632 -12.756607 26.577001 3.795563 -15.238164 -6.948665 4.351657 62.059979 -0.222351 0.932292 -9.358283 10.877302 0.031365 -0.161375 0.012439 -0.208944 -5.898162 6.478420 130.309890 83.442697 139.212060 -5.820721 -12.407446 -11.118878 0.220395 -25.331166 -0.023616
-48.679607 61.988793 13.873965 176.920593 -51.555710 -0.122266 4.328172 27.596679 0.150053 0.688938 4.782321 -0.030596 1.105617 7.561508 -0.024258 3.328706 22.159093 0.372561 0.053162 16.144808 3.234662 -0.992031 -5.729074 5.915410 7.055212 6.267800 5.278794 6.781855 -19.118557 -15.268578 -137.035976 -51.388851 166.484055 20.303412 -2.180047 -25.085253 -8.546201 1.243516 0.444306 -15.744192 -17.876931 19.377563 156.516425 -60.371440 -175.338229 2.333011 -12.732103 26.535740 3.793200 -15.238679 -6.952624 4.347028 62.064497 -0.226666 0.932900 -9.346436 10.881462 0.034192 -0.168548 0.009462 -0.213150 -5.895043 6.473612 130.300479 83.441997 139.202808 -5.823561 -12.409624 -11.119108 0.222932 -25.329168 -0.024303
-48.680483 61.988093 13.874657 176.923341 -51.557881 -0.123544 4.314719 27.596042 0.145245 0.688774 4.783127 -0.031564 1.103061 7.560883 -0.023658 3.316463 22.159592 0.366787 0.054283 16.134083 3.270021 -1.016146 -5.762158 6.008185 7.060658 6.265335 5.278369 6.642897 -19.045805 -15.217061 -137.063375 -51.492718 166.527961 20.308364 -2.180752 -25.085871 -8.533495 1.254461 0.445118 -15.631015 -17.752307 19.351313 156.468200 -60.452086 -175.348877 2.356825 -12.713064 26.506330 3.790844 -15.237488 -6.953078 4.340352 62.064500 -0.233860 0.935903 -9.340791 10.882879 0.033718 -0.168186 0.009655 -0.217499 -5.892477 6.472033 130.286347 83.441874 139.189740 -5.832045 -12.412599 -11.121728 0.226373 -25.327298 -0.021478
